<svg t="1589780795900" class="icon" viewBox="0 0 1024 1024" version="1.1" xmlns="http://www.w3.org/2000/svg" p-id="3207" width="200" height="200"><path d="M864.3584 421.2736a46.08 46.08 0 1 1 41.4208-82.3296c26.5216 13.3632 51.6608 29.5424 75.2128 48.5376a81.92 81.92 0 0 1 6.3488 121.3952l-206.4896 206.4896 9.1648 9.1648c150.272 149.1456 213.7088 212.6336 219.0848 219.4944 1.6384 2.2016 1.6384 2.2016-1.024 57.9584l-61.3376 8.3968c-2.4064-1.6896-2.4064-1.6896-4.096-3.1232l-1.7408-1.536-1.1776-1.1776-3.072-3.072-11.9808-11.8784-48.0768-48.0256a343675.648 343675.648 0 0 1-160.768-160.8704l-205.6192 207.2064c-15.616 15.5648-36.352 24.0128-57.856 24.0128-24.3712 0-47.616-10.8032-63.5904-30.208a421.888 421.888 0 0 1-80.5376-373.0432L159.4368 421.0176a245.6576 245.6576 0 0 1-117.7088-39.168 80.896 80.896 0 0 1-12.8-124.928L257.536 28.7744a80.8448 80.8448 0 0 1 125.0304 13.056c22.8864 35.328 36.096 75.6224 38.8608 117.1456l187.6992 148.8384a423.2192 423.2192 0 0 1 107.1616-13.824 46.08 46.08 0 1 1 0 92.16c-34.816 0-69.4784 5.5296-102.8096 16.384l-23.552 7.68-260.9152-206.8992 0.7168-23.1424c0.8192-26.5216-5.12-52.736-17.3056-75.9296L104.3456 311.808a153.8048 153.8048 0 0 0 75.3664 17.4592l23.7056-1.1776 207.2576 261.376-7.68 23.552a329.8816 329.8816 0 0 0 50.176 301.4656l197.5296-199.0656 32.2048-32.4608 32.3584-32.6656 198.656-198.3488a327.424 327.424 0 0 0-49.5616-30.72z" fill="#595959" p-id="3208"></path></svg>
