<svg t="1588916711671" class="icon" viewBox="0 0 1024 1024" version="1.1" xmlns="http://www.w3.org/2000/svg" p-id="3591" width="200" height="200"><path d="M868 355c5.4 0 10 4.6 10 10v503.3c0 5.4-4.6 10-10 10H158c-5.4 0-10-4.6-10-10V365c0-5.4 4.6-10 10-10h710m0-50H158c-33 0-60 27-60 60v503.3c0 33 27 60 60 60h710c33 0 60-27 60-60V365c0-33-27-60-60-60zM835.1 256H188.9c-13.8 0-25-11.2-25-25 0-13.7 11.2-25 25-25h646.2c13.8 0 25 11.2 25 25s-11.3 25-25 25zM776 151H248c-13.7 0-25-11.2-25-25 0-13.7 11.2-25 25-25h528c13.8 0 25 11.2 25 25s-11.2 25-25 25z" p-id="3592"></path><path d="M656.8 582h-273c-13.8 0-25-11.3-25-25 0-13.8 11.2-25 25-25h273c13.8 0 25 11.2 25 25s-11.2 25-25 25zM656.8 687h-273c-13.8 0-25-11.3-25-25 0-13.8 11.2-25 25-25h273c13.8 0 25 11.2 25 25s-11.2 25-25 25z" p-id="3593"></path><path d="M547 786.5v-264c0-13.7-11.3-25-25-25-13.8 0-25 11.3-25 25v264c0 13.8 11.3 25 25 25 13.8 0 25-11.2 25-25z" p-id="3594"></path><path d="M481.8 531.6l-82.4-72.5c-10.3-9.1-11.3-25-2.3-35.3 9.1-10.3 25-11.3 35.3-2.3l82.4 72.5c10.3 9.1 11.3 25 2.3 35.3-9.1 10.3-25 11.4-35.3 2.3z" p-id="3595"></path><path d="M558.4 529.9l82.4-72.5c10.3-9.1 11.3-25 2.3-35.3-9.1-10.3-25-11.3-35.3-2.3l-82.4 72.5c-10.3 9.1-11.3 25-2.3 35.3 9.1 10.4 25 11.4 35.3 2.3z" p-id="3596"></path></svg>
