<svg t="1588935138910" class="icon" viewBox="0 0 1024 1024" version="1.1" xmlns="http://www.w3.org/2000/svg" p-id="4040" width="200" height="200"><path d="M113.116279 1024h607.255814v-47.627907H113.116279zM654.883721 309.581395v357.209303c0 138.12093-111.925581 250.046512-250.046512 250.046511s-250.046512-111.949395-250.046511-250.117953V309.581395h500.093023z m47.627907-47.627907H107.162791v404.765768C107.162791 831.190326 240.425674 964.465116 404.837209 964.465116c164.423442 0 297.674419-133.262884 297.674419-297.674418V261.953488zM250.046512 4.203163v183.153116h47.627907V4.203163zM381.023256 4.203163v183.153116h47.627907V4.203163zM512 4.203163v183.153116h47.627907V4.203163z" p-id="4041"></path><path d="M671.243907 751.711256c19.456 6.810791 40.019349 10.335256 61.035163 10.335256 101.923721 0 184.55814-82.634419 184.558139-184.55814C916.837209 475.564651 834.202791 392.930233 732.27907 392.930233c-21.539721 0-42.603163 3.691163-62.475907 10.847255l16.122046 44.817861A136.644465 136.644465 0 0 1 732.27907 440.55814c75.621209 0 136.930233 61.309023 136.930232 136.930232S807.900279 714.418605 732.27907 714.418605c-15.63386 0-30.874791-2.619535-45.29414-7.656186l-15.741023 44.948837z" p-id="4042"></path></svg>
