<?xml version="1.0" standalone="no"?><!DOCTYPE svg PUBLIC "-//W3C//DTD SVG 1.1//EN" "http://www.w3.org/Graphics/SVG/1.1/DTD/svg11.dtd"><svg t="1589002903055" class="icon" viewBox="0 0 1024 1024" version="1.1" xmlns="http://www.w3.org/2000/svg" p-id="4133" width="32" height="32" xmlns:xlink="http://www.w3.org/1999/xlink"><defs><style type="text/css"></style></defs><path d="M679.63871 398.864516c-17.341935 0-31.380645-14.03871-31.380645-31.380645s14.03871-31.380645 31.380645-31.380645c40.464516 0 74.322581-33.032258 74.32258-74.322581s-33.032258-74.322581-74.32258-74.32258c-17.341935 0-31.380645-14.03871-31.380645-31.380646s14.03871-31.380645 31.380645-31.380645c75.148387 0 137.083871 61.109677 137.083871 137.083871s-61.935484 137.083871-137.083871 137.083871z" p-id="4134"></path><path d="M691.2 398.864516h-454.193548c-16.516129 0-30.554839-13.212903-30.554839-30.554839v-1.651612c0-16.516129 13.212903-30.554839 30.554839-30.554839h454.193548c16.516129 0 30.554839 13.212903 30.554839 30.554839v1.651612c0 17.341935-14.03871 30.554839-30.554839 30.554839zM754.787097 542.554839H310.503226c-16.516129 0-29.729032-13.212903-29.729032-29.729033v-2.477419c0-16.516129 13.212903-29.729032 29.729032-29.729032h443.458064c16.516129 0 29.729032 13.212903 29.729033 29.729032v2.477419c0.825806 16.516129-12.387097 29.729032-28.903226 29.729033zM679.63871 896.825806c-17.341935 0-31.380645-14.03871-31.380645-31.380645s14.03871-31.380645 31.380645-31.380645c40.464516 0 74.322581-33.032258 74.32258-74.322581s-33.032258-74.322581-74.32258-74.32258c-17.341935 0-31.380645-14.03871-31.380645-31.380645s14.03871-31.380645 31.380645-31.380645c75.148387 0 137.083871 61.109677 137.083871 137.08387s-61.935484 137.083871-137.083871 137.083871z" p-id="4135"></path><path d="M691.2 623.483871h-454.193548c-16.516129 0-30.554839 13.212903-30.554839 30.554839v1.651613c0 16.516129 13.212903 30.554839 30.554839 30.554838h454.193548c16.516129 0 30.554839-13.212903 30.554839-30.554838v-1.651613c0-17.341935-14.03871-30.554839-30.554839-30.554839z" p-id="4136"></path></svg>