<?xml version="1.0" standalone="no"?><!DOCTYPE svg PUBLIC "-//W3C//DTD SVG 1.1//EN" "http://www.w3.org/Graphics/SVG/1.1/DTD/svg11.dtd"><svg t="1588733628200" class="icon" viewBox="0 0 1024 1024" version="1.1" xmlns="http://www.w3.org/2000/svg" p-id="4133" width="32" height="32" xmlns:xlink="http://www.w3.org/1999/xlink"><defs><style type="text/css"></style></defs><path d="M632.9 112.8c-16.6 0-21.6 15-8.3 28.3l81.5 81.5-149.6 149.5c-8.3 8.3-8.3 21.6 0 31.6l61.5 61.5c8.3 8.3 21.6 8.3 31.6 0l151.3-151.3 81.5 81.5c13.3 13.3 28.3 8.3 28.3-8.3v-256c0-10-10-18.3-19.9-18.3H632.9zM137.5 910.7h256c16.6 0 21.6-18.3 8.3-31.6L320.4 796 470 644.8c8.3-8.9 8.3-22.7 0-31.6l-61.5-61.5c-8.3-8.3-21.6-8.3-31.6 0L227.3 701.3l-83.1-81.5c-15-13.3-31.6-8.3-31.6 8.3v256c0 11.7 13.3 26.6 24.9 26.6z m773-277.6c0-16.6-15-21.6-28.3-8.3l-81.5 81.5-149.5-149.6c-8.3-8.3-21.6-8.3-31.6 0l-61.5 61.5c-8.3 8.3-8.3 21.6 0 31.6L709.4 801l-81.5 81.5c-13.3 13.3-8.3 28.3 8.3 28.3h256c10 0 18.3-10 18.3-19.9V633.1zM112.6 137.7v256c0 16.6 18.3 21.6 31.6 8.3l83.1-81.5 151.3 149.6c8.9 8.3 22.7 8.3 31.6 0l61.5-61.5c8.3-8.3 8.3-21.6 0-31.6L322.1 227.5l81.5-83.1c13.3-15 8.3-31.6-8.3-31.6h-256c-11.7 0-26.7 13.3-26.7 24.9z m0 0" p-id="4134"></path></svg>