<?xml version="1.0" standalone="no"?><!DOCTYPE svg PUBLIC "-//W3C//DTD SVG 1.1//EN" "http://www.w3.org/Graphics/SVG/1.1/DTD/svg11.dtd"><svg t="1585553116375" class="icon" viewBox="0 0 1024 1024" version="1.1" xmlns="http://www.w3.org/2000/svg" p-id="12401" width="16" height="16" xmlns:xlink="http://www.w3.org/1999/xlink"><defs><style type="text/css"></style></defs><path d="M697.115 470.462c10.836 0 21.672 3.612 29.799 11.74 16.254 16.253 16.254 42.44 0 58.694L352.169 915.64c-16.254 16.254-42.44 16.254-58.695 0-16.254-16.254-16.254-42.44 0-58.695L668.22 482.201c7.224-8.127 18.06-11.739 28.896-11.739z" p-id="12402"></path><path d="M321.467 95.718c10.836 0 21.672 3.612 29.8 11.739L726.01 482.2c16.254 16.254 16.254 42.441 0 58.695s-42.441 16.254-58.695 0L292.57 166.152c-16.254-16.254-16.254-42.441 0-58.695 8.127-8.127 18.963-11.74 28.896-11.74z" p-id="12403"></path></svg>