<?xml version="1.0" standalone="no"?><!DOCTYPE svg PUBLIC "-//W3C//DTD SVG 1.1//EN" "http://www.w3.org/Graphics/SVG/1.1/DTD/svg11.dtd"><svg t="1585553367965" class="icon" viewBox="0 0 1024 1024" version="1.1" xmlns="http://www.w3.org/2000/svg" p-id="13842" width="32" height="32" xmlns:xlink="http://www.w3.org/1999/xlink"><defs><style type="text/css"></style></defs><path d="M273.651398 547.359177a33.188176 33.188176 0 0 1-24.714599-10.591971 33.894308 33.894308 0 0 1 0-49.429199L725.575503 10.699303a33.894308 33.894308 0 0 1 49.429199 0 33.894308 33.894308 0 0 1 0 49.429199L298.365998 536.767206a33.188176 33.188176 0 0 1-24.7146 10.591971z" fill="#2c2c2c" p-id="13843"></path><path d="M750.290102 1023.997882a33.188176 33.188176 0 0 1-24.714599-10.591972L248.936799 536.767206a33.894308 33.894308 0 0 1 0-49.429199 33.894308 33.894308 0 0 1 49.429199 0l476.638704 476.638704a33.894308 33.894308 0 0 1 0 49.429199 33.188176 33.188176 0 0 1-24.7146 10.591972z" fill="#2c2c2c" p-id="13844"></path></svg>