<?xml version="1.0" standalone="no"?><!DOCTYPE svg PUBLIC "-//W3C//DTD SVG 1.1//EN" "http://www.w3.org/Graphics/SVG/1.1/DTD/svg11.dtd"><svg t="1585557512664" class="icon" viewBox="0 0 1024 1024" version="1.1" xmlns="http://www.w3.org/2000/svg" p-id="21935" width="16" height="16" xmlns:xlink="http://www.w3.org/1999/xlink"><defs><style type="text/css"></style></defs><path d="M861.550141 350.587773 671.453618 160.490228l65.242933-65.246003c23.536043-23.532973 61.525262-23.698748 84.856643-0.367367L927.160441 200.488197c23.331381 23.328311 23.166629 61.320601-0.364297 84.850503L861.550141 350.587773zM394.784368 819.143309l-191.583386-191.583386 447.735347-447.735347 191.583386 191.583386L394.784368 819.143309zM650.563846 266.813788 290.194288 627.183346l20.989033 20.99415 360.372627-360.372627L650.563846 266.813788zM692.550099 308.800042 332.177472 669.169599l20.99722 20.99415L713.544249 329.794192 692.550099 308.800042zM374.165772 711.158922l20.99415 20.99415L755.530502 371.780445l-20.99415-20.99415L374.165772 711.158922zM233.286184 426.895717l84.865853-84.865853-19.277042-19.280112-84.868923 84.868923-65.817008-65.817008 84.450391-84.450391-20.615527-20.615527-84.447321 84.447321L63.981197 257.588683 256.287037 65.286935l234.9378 233.57885-192.985316 192.985316L233.286184 426.895717zM180.790576 900.16767l-92.219331 33.603329 33.606399-92.217285L180.790576 900.16767zM188.454116 652.500964l181.38921 181.38614-158.938895 56.444547-78.888721-78.891791L188.454116 652.500964zM958.164572 767.16447 765.859755 959.469288l-63.591317-63.597457 84.447321-84.444251-20.615527-20.615527-84.450391 84.447321-65.813938-65.813938 84.865853-84.865853-19.283182-19.280112-84.862783 84.865853-64.951291-64.954361 192.982246-192.985316L958.164572 767.16447z" p-id="21936"></path></svg>