<?xml version="1.0" standalone="no"?><!DOCTYPE svg PUBLIC "-//W3C//DTD SVG 1.1//EN" "http://www.w3.org/Graphics/SVG/1.1/DTD/svg11.dtd"><svg t="1585812261123" class="icon" viewBox="0 0 1024 1024" version="1.1" xmlns="http://www.w3.org/2000/svg" p-id="10133" width="16" height="16" xmlns:xlink="http://www.w3.org/1999/xlink"><defs><style type="text/css"></style></defs><path d="M906.1 368.9c-0.3-0.3-0.6-0.4-0.9-0.6L655.8 118.9c-0.3-0.3-0.3-0.6-0.6-0.9-4.7-4.7-10.8-7-17-6.9-6.8-0.2-13.6 2.1-18.8 7.2-1.6 1.6-2.6 3.6-3.7 5.6L123.8 615.7c-1.9 1.1-3.9 2-5.6 3.7-5.2 5.2-7.5 12-7.2 18.8-0.1 6.1 2.2 12.3 6.9 17 0.3 0.3 0.6 0.4 0.9 0.6l249.4 249.4c0.3 0.3 0.3 0.7 0.6 0.9 4.7 4.7 11 7 17.2 6.9 6.7 0.2 13.4-2.2 18.5-7.3 1.5-1.5 2.3-3.3 3.3-5l492.9-492.9c1.7-1 3.5-1.8 5-3.3 5.1-5.1 7.5-11.8 7.3-18.5 0.1-6.1-2.1-12.4-6.9-17.1z m-465 372.7c-10.8 10.7-28.2 10.7-39 0L257.6 596.9c-10.8-10.7-10.8-28.2 0-38.9s28.2-10.7 39 0l144.6 144.7c10.7 10.8 10.7 28.2-0.1 38.9z m51.6-148.7c-10.3 10.2-26.9 10.2-37.1 0l-98.2-98.2c-10.2-10.2-10.2-26.9 0-37.1 10.3-10.2 26.9-10.2 37.1 0l98.2 98.2c10.2 10.2 10.2 26.8 0 37.1z m148.8-51.6c-10.7 10.8-28.2 10.8-38.9 0L457.9 396.7c-10.7-10.8-10.7-28.2 0-39s28.2-10.8 38.9 0l144.7 144.6c10.7 10.8 10.7 28.2 0 39zM693 392.5c-10.3 10.2-26.9 10.2-37.1 0l-98.2-98.2c-10.2-10.2-10.2-26.9 0-37.1 10.3-10.2 26.9-10.2 37.1 0l98.2 98.2c10.3 10.2 10.3 26.9 0 37.1z" p-id="10134"></path></svg>