<?xml version="1.0" standalone="no"?><!DOCTYPE svg PUBLIC "-//W3C//DTD SVG 1.1//EN" "http://www.w3.org/Graphics/SVG/1.1/DTD/svg11.dtd"><svg t="1585813161697" class="icon" viewBox="0 0 1024 1024" version="1.1" xmlns="http://www.w3.org/2000/svg" p-id="10313" width="16" height="16" xmlns:xlink="http://www.w3.org/1999/xlink"><defs><style type="text/css"></style></defs><path d="M183.9 413.9h-51.5v99.7h51.5v-99.7z m0 151.2h-51.5v99.7h51.5v-99.7z m0-302.4h-51.5v99.7h51.5v-99.7z m604.7-51.5h51.5v-99.7h-99.7V163h51.5v48.2h-3.3z m-99.7-99.7h-99.7V163h99.7v-51.5z m99.7 254.1h51.5V262.7h-51.5v102.9zM283.6 163h99.7v-51.5h-99.7V163z m254.1-51.5H438V163h99.7v-51.5z m353.9 453.6L486.3 262.7v556.5l141.5-170.5 157.6 263.8 86.8-51.5-157.6-263.8 177-32.1z m-608 254.1h99.7v-51.5h-99.7v51.5z m-151.2-608h51.5V163h51.5v-51.5h-103v99.7z m51.5 508.3h-51.5v99.7h99.7v-51.5h-48.2v-48.2z" p-id="10314"></path></svg>